<mxfile host="app.diagrams.net" modified="2024-01-18T20:08:08.870Z" agent="Mozilla/5.0 (Windows NT 10.0; Win64; x64) AppleWebKit/537.36 (KHTML, like Gecko) Chrome/120.0.0.0 Safari/537.36" version="22.1.16" etag="XnhrrSwgiXDlORsi00dl" type="onedrive">
  <diagram name="Page-1" id="MGhfOMNo7e_pxOl0kt5I">
    <mxGraphModel>
      <root>
        <mxCell id="0" />
        <mxCell id="1" parent="0" />
      </root>
    </mxGraphModel>
  </diagram>
</mxfile>
